<svg xmlns="http://www.w3.org/2000/svg" viewBox="0 0 168 168">
  <path fill="#1DB954" d="M84 0C37.7 0 0 37.7 0 84s37.7 84 84 84 84-37.7 84-84S130.3 0 84 0zm38.5 120.5c-1.5 2.4-4.6 3.1-7 1.6-19.2-11.7-43.3-14.4-71.8-7.9-2.8.6-5.5-1.1-6.1-3.8-.6-2.8 1.1-5.5 3.8-6.1 31.2-7.1 58.1-4.1 79.8 9.2 2.5 1.5 3.2 4.6 1.3 7zm10.3-22.8c-1.9 3-5.8 4-8.8 2.1-22-13.5-55.5-17.4-81.5-9.5-3.2.9-6.5-1-7.4-4.2-.9-3.2 1-6.5 4.2-7.4 29.7-9 66.5-4.6 91.7 10.9 3 1.8 4 5.8 1.8 8.1zm.9-23.7c-26.4-15.7-69.9-17.1-95.1-9.5-4 1.2-8.2-1.1-9.4-5.1-1.2-4 1.1-8.2 5.1-9.4 28.9-8.8 77-7.1 107.4 11 3.6 2.2 4.8 6.8 2.6 10.5-2.1 3.6-6.8 4.8-10.6 2.5z"/>
</svg>
